<?xml version="1.0" standalone="no"?>
<!DOCTYPE svg PUBLIC "-//W3C//DTD SVG 1.1//EN" "http://www.w3.org/Graphics/SVG/1.1/DTD/svg11.dtd" >
<svg xmlns="http://www.w3.org/2000/svg">
<metadata></metadata>
<defs>
<font id="stonyislandnfregular" horiz-adv-x="2048" >
<font-face units-per-em="2048" ascent="1638" descent="-410" />
<missing-glyph horiz-adv-x="454" />
<glyph />
<glyph />
<glyph unicode="&#xd;" horiz-adv-x="454" />
<glyph unicode=" "  horiz-adv-x="454" />
<glyph unicode="&#x09;" horiz-adv-x="454" />
<glyph unicode="&#xa0;" horiz-adv-x="454" />
<glyph unicode="!" horiz-adv-x="370" d="M49 1421q-2 53 41 93t96 40t95.5 -39.5t40.5 -91.5v-10l-89 -1079h-98zM61 125q0 51 38 89t89 38t88 -38t37 -89t-36.5 -89t-88.5 -38q-51 0 -89 38t-38 89z" />
<glyph unicode="&#x22;" horiz-adv-x="559" d="M49 1450q0 45 31 73.5t78 28.5q45 0 75.5 -28.5t30.5 -73.5q0 -14 -2 -29l-67 -305h-76l-66 305q-4 14 -4 29zM295 1450q0 45 30.5 73.5t77.5 28.5q45 0 76 -28.5t31 -73.5q0 -14 -2 -29l-68 -305h-75l-66 305q-4 14 -4 29z" />
<glyph unicode="#" />
<glyph unicode="$" horiz-adv-x="710" d="M49 250v72h172q88 0 155.5 62t67.5 151q0 63 -65 139q-27 31 -117 112q-96 86 -121 121q-53 70 -53 158q0 115 76 195q70 76 186 102v192h74v-180q25 2 57 2h111v-71h-47q-229 2 -230 -181q0 -76 91 -170q82 -80 165 -161q91 -103 91 -197q0 -106 -67 -189t-171 -124 v-285h-74v262q-63 -12 -129 -12z" />
<glyph unicode="%" />
<glyph unicode="&#x26;" horiz-adv-x="1107" d="M49 563q0 180 68 328q82 176 233 223l-166 440h426v-71h-186l379 -1008l20 60q152 461 166 1103h70q-14 -784 -219 -1263l141 -377h-211q-29 84 -57 158q-119 -156 -277 -156q-166 0 -280 166q-106 156 -107 397zM276 563q0 -264 29 -362q37 -129 137 -129 q127 -1 240 161l-305 807q-72 -47 -92 -221q-8 -74 -9 -256z" />
<glyph unicode="'" horiz-adv-x="313" d="M49 1450q0 45 31 73.5t78 28.5q45 0 75.5 -28.5t30.5 -73.5q0 -14 -2 -29l-67 -305h-76l-66 305q-4 14 -4 29z" />
<glyph unicode="(" horiz-adv-x="489" d="M49 635q0 397 105 647q113 272 286 272v-71q-92 0 -133 -232q-29 -164 -28 -616q0 -455 28 -619q41 -229 133 -229v-72q-174 0 -286 273q-104 250 -105 647z" />
<glyph unicode=")" horiz-adv-x="489" d="M20 -213v-72q174 0 287 273q104 250 105 647q0 397 -105 647q-113 272 -287 272v-71q92 0 134 -232q29 -164 28 -616q0 -455 -28 -619q-41 -229 -134 -229z" />
<glyph unicode="*" horiz-adv-x="503" d="M49 1231l129 76l-129 73l33 62l133 -76v152h72v-150l131 76l37 -64l-131 -73l129 -76l-35 -64l-131 74v-149h-72v151l-131 -76z" />
<glyph unicode="+" />
<glyph unicode="," horiz-adv-x="352" d="M51 127q0 53 36 89t89 36t89 -37t36 -90q0 -31 -12 -55l-90 -181l-64 33l37 76q-51 2 -86 40t-35 89z" />
<glyph unicode="-" horiz-adv-x="540" d="M49 545v198h443v-198h-443z" />
<glyph unicode="." horiz-adv-x="350" d="M49 125q0 51 38 89t89 38t88 -38t37 -89t-37 -89t-88 -38t-89 38t-38 89z" />
<glyph unicode="/" horiz-adv-x="727" d="M49 -274l430 1896h199l-430 -1896h-199z" />
<glyph unicode="0" horiz-adv-x="886" d="M49 776q0 334 107 549q115 229 286 229q174 0 287 -229q109 -221 109 -549q0 -326 -109 -547q-113 -229 -287 -229q-172 0 -286 229q-106 215 -107 547zM281 776q0 -389 26 -516q39 -188 135 -188q98 0 138 188q26 127 26 516q0 391 -26 518q-39 188 -138 189 q-96 0 -135 -189q-27 -127 -26 -518z" />
<glyph unicode="1" horiz-adv-x="405" d="M49 1483v71h307v-1556h-198v1485h-109z" />
<glyph unicode="2" horiz-adv-x="815" d="M49 -2l412 879q117 250 117 432q0 174 -148 174h-190v71h186q154 0 247 -91.5t93 -245.5q0 -147 -84 -328l-381 -817h389v-74h-641z" />
<glyph unicode="3" horiz-adv-x="755" d="M49 1483v71h578l-297 -436q176 -33 282 -207q94 -156 95 -348q0 -217 -119 -383q-131 -182 -340 -182h-129v74q238 0 311 137q49 92 49 354q0 248 -55 346q-51 90 -156 121q-63 20 -200 27l288 426h-307z" />
<glyph unicode="4" horiz-adv-x="927" d="M49 301l383 1253h203l-363 -1179h279v516h199v-516h129v-74h-129v-303h-199v303h-502z" />
<glyph unicode="5" horiz-adv-x="692" d="M49 1057v497h459v-71h-268v-359q190 -29 303 -202q100 -156 100 -359q0 -219 -117 -383q-131 -182 -340 -182h-129v74q236 0 310 137q51 94 51 354q0 256 -49 348q-70 133 -320 146z" />
<glyph unicode="6" horiz-adv-x="886" d="M49 776q0 291 88 498q119 281 369 280h135l-2 -71h-135q-82 0 -150 -123q-57 -104 -63 -199q72 43 151 43q199 0 308 -213q88 -170 88 -389q0 -217 -88 -391q-111 -213 -308 -213q-170 0 -286 231q-106 213 -107 547zM281 694q0 -248 14 -356q35 -266 147 -266 q100 0 138 139q26 100 26 391t-26 391q-37 137 -138 137q-86 0 -159 -63q-2 -86 -2 -195v-178z" />
<glyph unicode="7" horiz-adv-x="663" d="M49 1483v71h565l-356 -1556h-205l334 1485h-338z" />
<glyph unicode="8" horiz-adv-x="886" d="M49 479q0 137 55 252q61 125 175 184q-180 80 -181 304q0 156 94.5 245.5t249.5 89.5q158 0 252 -88.5t94 -246.5q0 -225 -180 -304q113 -59 174 -184q55 -113 56 -252q0 -190 -101 -327q-111 -152 -295 -152q-182 0 -292 152q-100 137 -101 327zM281 477q0 -193 12 -250 q31 -156 149 -155q119 0 152 155q12 64 12 250q0 223 -26 301q-37 104 -138 105q-119 0 -151 -156q-10 -55 -10 -250zM328 1237q0 -283 114 -283q117 1 117 263q0 266 -117 266q-66 0 -94 -94q-20 -66 -20 -152z" />
<glyph unicode="9" horiz-adv-x="884" d="M49 952q0 219 88 389q109 213 305 213q172 0 287 -229q107 -215 107 -549q0 -289 -88 -495q-119 -281 -367 -281h-137l2 72h135q82 0 149 123q57 104 64 198q-72 -43 -152 -43q-197 0 -305 213q-88 172 -88 389zM279 952q0 -291 26 -391q37 -137 137 -137q90 0 160 63 q4 88 4 213v136q0 319 -28 458q-39 188 -136 189q-18 0 -34 -6h-2q-94 -27 -119 -234q-8 -70 -8 -291z" />
<glyph unicode=":" horiz-adv-x="364" d="M49 735q0 51 38 88t89 37t89 -37t38 -88t-38 -89t-89 -38t-89 38t-38 89zM63 125q0 51 38 89t89 38t88 -38t37 -89t-36.5 -89t-88.5 -38q-51 0 -89 38t-38 89z" />
<glyph unicode=";" horiz-adv-x="352" d="M49 735q0 51 38 88t89 37t89 -37t38 -88t-38 -89t-89 -38t-89 38t-38 89zM51 127q0 53 36 89t89 36t89 -37t36 -90q0 -31 -12 -55l-90 -181l-64 33l37 76q-51 2 -86 40t-35 89z" />
<glyph unicode="&#x3c;" />
<glyph unicode="=" />
<glyph unicode="&#x3e;" />
<glyph unicode="?" horiz-adv-x="673" d="M49 125q0 51 38 89t89 38t88 -38t37 -89t-37 -89t-88 -38t-89 38t-38 89zM59 1481v73h131q168 0 293 -86q142 -98 142 -260q0 -84 -105 -211q-96 -115 -194 -231q-104 -139 -105 -250v-162h-76v215q0 135 130.5 366.5t130.5 334.5q0 88 -67 147.5t-157 63.5v2z" />
<glyph unicode="@" horiz-adv-x="1710" d="M49 776q0 334 236.5 570.5t570.5 236.5q332 0 568.5 -237.5t236.5 -569.5q0 -297 -193 -522h-589q-180 0 -291 143q-102 131 -103 318q0 184 103 315q113 143 291 144h26q-10 94 -59 118q-31 16 -135 17v73h28q190 0 293 -92q109 -98 109 -284v-680h293q156 199 155 450 q0 301 -216 517t-517 216q-303 0 -518 -215t-215 -518t215 -518t518 -215q139 0 279 55l32 -65q-152 -61 -311 -62q-332 0 -569.5 236.5t-237.5 568.5zM717 715q0 -186 12 -242q31 -147 150 -147h30v776h-30q-119 0 -150 -148q-12 -55 -12 -239z" />
<glyph unicode="A" horiz-adv-x="950" d="M49 1055v73h150q4 4 6 13q127 413 292 413h1q176 0 293 -413q110 -393 110 -942q0 -100 -6 -199h-205q0 31 2 100v99q0 477 -57 856h-277q-57 -375 -57 -828q0 -113 4 -227h-207q-2 68 -2 199q0 481 86 856h-133zM371 1128h254q-63 354 -127 355q-63 0 -127 -355z" />
<glyph unicode="B" horiz-adv-x="833" d="M49 -2v1556h252q133 0 242 -57q133 -71 133 -192q0 -137 -174 -209q137 -68 215 -224q68 -141 67 -307q0 -231 -120 -395q-127 -172 -306 -172h-309zM231 72h88h46q76 2 135 133q67 147 67 358q0 209 -67 359q-59 133 -142 133h-69v73q90 0 136 50.5t46 126.5t-48 127 t-138 51h-26.5h-27.5v-1411z" />
<glyph unicode="C" horiz-adv-x="735" d="M49 776q0 336 123 549q133 229 332 229h182v-71h-53q-229 0 -307 -195q-53 -133 -54 -512q0 -377 54 -510q78 -194 305 -194h2h53v-72h-182q-199 0 -332 229q-123 213 -123 547z" />
<glyph unicode="D" horiz-adv-x="798" d="M49 0v1554h244q197 0 332 -229q125 -213 125 -549q0 -334 -125 -547q-135 -229 -332 -229h-244zM246 78q166 31 227 188q53 137 53 510q0 375 -53 512q-61 158 -227 189v-1399z" />
<glyph unicode="E" horiz-adv-x="716" d="M49 1055v73h51v426h568v-71h-369v-355h205v-73h-205v-983h369v-72h-568v1055h-51z" />
<glyph unicode="F" horiz-adv-x="716" d="M49 1055v73h51v426h568v-71h-369v-355h205v-73h-205v-1055h-199v1055h-51z" />
<glyph unicode="G" horiz-adv-x="862" d="M49 776q0 334 125 549q133 229 332 229h266v-71h-137q-233 0 -309 -195q-51 -131 -52 -512q0 -313 62.5 -508.5t128.5 -195.5t133 59q6 2 16 14v983h199v-1128h-199v51q-74 -51 -149 -51q-178 0 -301 238q-115 223 -115 538z" />
<glyph unicode="H" horiz-adv-x="768" d="M49 1055v73h66v426h200v-426h207v426h197v-1554h-197v1055h-207v-1055h-200v1055h-66z" />
<glyph unicode="I" horiz-adv-x="294" d="M49 0v1554h197v-1554h-197z" />
<glyph unicode="J" horiz-adv-x="612" d="M49 0v72q199 0 246 78q43 72 43 385v1019h225v-1019q0 -264 -96 -390q-109 -145 -363 -145h-55z" />
<glyph unicode="K" horiz-adv-x="784" d="M49 -2v1556h207v-426h18q45 0 101 99q59 109 88 327h207q0 -324 -232 -450q147 -66 230 -250q67 -156 67 -340l-2 -514l-217 -2l2 520q0 256 -98 418q-72 119 -164 119v-1057h-207z" />
<glyph unicode="L" horiz-adv-x="587" d="M49 0v1554h199v-1482h291v-72h-490z" />
<glyph unicode="M" horiz-adv-x="978" d="M49 0v1554h197v-116q95 116 194 116h2q96 0 133 -129q104 129 201 129q154 0 154 -309v-1245h-205v1260q0 137 -45 137q-23 0 -59 -37q-25 -27 -31 -53v-62v-1245h-205v1282q0 117 -41 117q-49 0 -98 -86v-1313h-197z" />
<glyph unicode="N" horiz-adv-x="690" d="M49 0v1554h199v-182l2 4q123 178 235 178q156 0 156 -309v-1245h-205v1260q0 135 -41 139h2q-70 0 -149 -178v-1221h-199z" />
<glyph unicode="O" horiz-adv-x="886" d="M49 776q0 334 107 549q115 229 286 229q174 0 287 -229q109 -221 109 -549q0 -326 -109 -547q-113 -229 -287 -229q-172 0 -286 229q-106 215 -107 547zM281 776q0 -389 26 -516q39 -188 135 -188q98 0 138 188q26 127 26 516q0 391 -26 518q-39 188 -138 189 q-96 0 -135 -189q-26 -122 -26 -490v-28z" />
<glyph unicode="P" horiz-adv-x="858" d="M49 0v1554h340q172 0 299 -186q121 -178 121 -428q0 -248 -121 -426q-127 -186 -303 -186h-129v-328h-207zM256 401h49q154 0 217 146q70 162 70 393t-70 395q-63 147 -219 148h-47v-1082z" />
<glyph unicode="Q" horiz-adv-x="886" d="M49 776q0 334 107 549q113 229 286 229q176 0 289 -229q107 -219 107 -549q0 -199 -45 -373q-55 -219 -170 -327q27 -41 26 -92q0 -74 -46 -122t-154 -48v71q73 2 73 70q0 31 -12 55q-33 -10 -68 -10q-176 0 -286 229q-106 219 -107 547zM281 696q0 -246 14 -354 q33 -270 145 -270q12 0 27 4q-66 80 -66 141q0 88 53.5 138.5t141.5 50.5q10 108 10 370q0 389 -26 518q-39 188 -138 189q-115 0 -149 -277q-12 -104 -12 -364v-146zM524 242q0 -31 29 -76q27 68 37 168q-31 0 -48.5 -30t-17.5 -62z" />
<glyph unicode="R" horiz-adv-x="858" d="M49 -2v1556h340q172 0 299 -186q121 -178 121 -426q0 -180 -70 -334q-78 -178 -221 -250q100 -45 162.5 -131t62.5 -192v-37h-206q-51 330 -209 330h-2v73h61q72 0 135 146q70 162 70 393t-70 395q-63 147 -219 148h-47v-1485h-207z" />
<glyph unicode="S" horiz-adv-x="720" d="M49 0v72h172q102 0 168 118q55 98 55 211q0 102 -69 217q-35 55 -142 187q-84 102 -106 147q-39 76 -39 178q0 186 113.5 305t300.5 119h92v-71h-90q-98 0 -156 -99q-45 -82 -45 -188q0 -76 43 -152q10 -20 90 -133q78 -104 154 -209q82 -126 82 -239q0 -193 -129 -328 t-320 -135h-174z" />
<glyph unicode="T" horiz-adv-x="610" d="M49 1483v71h512v-71h-153v-1485h-207v1485h-152z" />
<glyph unicode="U" horiz-adv-x="688" d="M49 309v1245h203v-1259q0 -139 43 -139q57 0 145 178v1220h199v-1556h-199v184l-2 -4q-111 -178 -237 -178q-152 0 -152 309z" />
<glyph unicode="V" horiz-adv-x="827" d="M49 1554h207l221 -1237l225 1237h76l-286 -1554l-158 -2z" />
<glyph unicode="W" horiz-adv-x="960" d="M49 1554h207l98 -1052l60 553q0 12 18 137q10 76 10 139l-8 74l-14 149h207l98 -1048l115 1048h71l-168 -1554l-163 -2l-101 989l-108 -987l-164 -2z" />
<glyph unicode="X" horiz-adv-x="716" d="M49 1554h209l119 -448l117 448h75l-155 -589l254 -965l-207 -2l-152 571l-149 -571h-74l186 715z" />
<glyph unicode="Y" horiz-adv-x="825" d="M49 1554h209l225 -1009l217 1009h76l-254 -1148v-408h-207v381z" />
<glyph unicode="Z" horiz-adv-x="675" d="M49 0l348 1483h-262v71h492l-353 -1482h338v-74z" />
<glyph unicode="[" />
<glyph unicode="\" />
<glyph unicode="]" />
<glyph unicode="^" />
<glyph unicode="_" horiz-adv-x="1122" d="M49 0h1024v-137h-1024v137z" />
<glyph unicode="`" horiz-adv-x="608" d="M49 1509q0 43 31 74t74 31q49 0 92 -55l313 -402h-121l-334 258q-55 43 -55 94z" />
<glyph unicode="a" horiz-adv-x="751" d="M49 461q0 182 103 315q111 143 288 144h27q-4 27 -18 75q-20 43 -76 54q-27 6 -101 6v73h29q186 0 293.5 -96t107.5 -280v-754h-262q-176 0 -288 145q-102 135 -103 318zM276 459q0 -205 29 -287q35 -100 135 -100h33v776h-33q-100 0 -135 -100q-29 -82 -29 -289z" />
<glyph unicode="b" horiz-adv-x="714" d="M49 -2v1556h199v-426q29 0 28 0q195 -10 302 -198q88 -156 88 -367q0 -240 -109 -399q-113 -166 -281 -166h-227zM248 72h24q98 0 136 129q28 98 28 362q0 266 -28 365q-37 127 -138 127h-22v-983z" />
<glyph unicode="c" horiz-adv-x="618" d="M49 563q0 240 110.5 402.5t276.5 162.5h133v-73h-127q-98 0 -135 -127q-28 -95 -28 -347v-18q0 -264 28 -362q37 -129 135 -129h127v-74h-133q-166 0 -278 166q-109 160 -109 399z" />
<glyph unicode="d" horiz-adv-x="811" d="M49 563q0 236 110.5 400.5t278.5 164.5q59 0 125 -24v450h199v-1556h-199v25q-59 -25 -125 -25q-188 0 -299 199q-90 164 -90 366zM281 563q0 -266 26 -362q35 -129 135 -129h4q65 0 117 30v922q-53 31 -121 31q-100 0 -135 -127q-26 -93 -26 -346v-19z" />
<glyph unicode="e" horiz-adv-x="792" d="M49 563q0 242 109 400q114 165 276 165h2q127 0 212 -82.5t95 -248.5h-456q-8 -78 -8 -234q0 -268 28 -362q39 -129 148 -129q61 0 117.5 41t78.5 100l68 -25q-33 -84 -106.5 -137t-163.5 -53q-178 0 -291 166q-109 160 -109 399zM295 870h252q0 59 -29 117 q-33 68 -86 68q-106 0 -137 -185z" />
<glyph unicode="f" horiz-adv-x="528" d="M49 -2v1182q0 182 104.5 278t288.5 96h37v-71q-72 0 -98 -6q-53 -12 -76 -58q-26 -51 -26 -274v-17h139v-73h-139v-1057h-230z" />
<glyph unicode="g" horiz-adv-x="815" d="M49 563q0 207 92 371q110 194 301 194h2q43 0 93 -14v31h229v-1180q0 -184 -103.5 -279.5t-289.5 -95.5h-37v74h31q113 0 143 60q27 51 27 288q-45 -14 -97 -14q-168 0 -279.5 164t-111.5 401zM281 563q0 -266 26 -362q35 -129 137 -129q48 0 93 16v950q-39 16 -93 17 q-102 0 -137 -127q-26 -93 -26 -346v-19z" />
<glyph unicode="h" horiz-adv-x="710" d="M49 -2v1556h230v-577q112 151 214 151h1q168 0 168 -311v-819h-218v850q0 123 -41 123q-55 0 -124 -131v-842h-230z" />
<glyph unicode="i" horiz-adv-x="333" d="M49 1458q0 43 37 69.5t82 26.5t81 -26.5t36 -69.5q0 -41 -37 -67.5t-80 -26.5q-45 0 -82 25.5t-37 68.5zM51 -2v1130h230v-1130h-230z" />
<glyph unicode="j" horiz-adv-x="339" d="M-135 -340q139 0 172 64q24 47 24 223v14v1172h230v-1172q0 -178 -105.5 -274.5t-285.5 -96.5h-35v70zM55 1460q0 43 39 70q32 24 75 24h3q45 0 81 -25.5t36 -68.5t-36 -67.5t-81 -24.5q-43 0 -80 25.5t-37 66.5z" />
<glyph unicode="k" horiz-adv-x="765" d="M49 -2v1556h232v-770h22q113 0 147.5 68t34.5 276h230q-39 -291 -226 -378q227 -109 228 -457v-295h-230v295q0 250 -26 325q-33 94 -150 95h-30v-715h-232z" />
<glyph unicode="l" horiz-adv-x="325" d="M49 -2v1556h227v-1556h-227z" />
<glyph unicode="m" horiz-adv-x="1099" d="M49 -2v1130h230v-161q112 161 222 161h1q123 0 157 -163q110 163 225 163h1q94 0 137 -116q29 -80 29 -195v-819h-217v848q0 123 -39 125h2h-2q-58 0 -125 -127q0 -4 -2 -13v-14v-819h-215v848q0 125 -39 125q-63 0 -135 -144v-829h-230z" />
<glyph unicode="n" horiz-adv-x="708" d="M49 -2v1130h230v-151q108 151 214 151h1q166 0 165 -311v-819h-215v852q0 121 -41 121q-59 0 -124 -131v-842h-230z" />
<glyph unicode="o" horiz-adv-x="888" d="M49 563q0 242 111.5 402.5t283.5 160.5q195 0 304 -194q92 -160 92 -369t-92 -370q-111 -195 -304 -195t-303 195q-92 162 -92 370zM281 563q0 -270 26 -362q39 -129 137 -129q100 0 138 129q26 92 26 362q0 272 -26 365q-37 127 -138 127q-100 0 -137 -127 q-26 -89 -26 -346v-19z" />
<glyph unicode="p" horiz-adv-x="815" d="M49 -410v1543h207v-25q59 25 125 25q164 0 274.5 -161t110.5 -401q0 -238 -109 -395q-113 -164 -280 -164q-66 0 -121 25v-447h-207zM256 1028l2 -913q53 -31 119 -31q96 0 133 127q27 94 27 360t-27 361q-37 129 -133 129q-61 0 -121 -33z" />
<glyph unicode="q" horiz-adv-x="815" d="M49 571q0 244 105 398q111 164 278 164q63 0 125 -25v25h209v-1543h-209v447q-57 -25 -119 -25q-172 0 -284 164q-104 154 -105 395zM274 571q0 -256 29 -360q35 -127 135 -127q61 0 117 31l2 913q-59 33 -119 33q-100 0 -135 -129q-29 -104 -29 -361z" />
<glyph unicode="r" horiz-adv-x="692" d="M49 -2v1130h213v-165q110 165 224 165h1q148 0 156 -260h-203q-14 102 -43 103q-68 0 -135 -152v-821h-213z" />
<glyph unicode="s" horiz-adv-x="714" d="M49 0v72h172q88 0 155.5 62.5t67.5 150.5q0 66 -65 141q-23 27 -118 112t-120 119q-53 70 -53 158q0 160 133 244q109 69 276 69h5h90v-73h-55h-9q-112 0 -166 -51q-61 -59 -61 -132q0 -53 45 -106q43 -43 86 -84q76 -74 152 -150q82 -94 82 -186q0 -164 -144 -262 q-127 -86 -299 -86q-117 0 -174 2z" />
<glyph unicode="t" horiz-adv-x="526" d="M49 375v1007h227v-260h123v-71h-123v-676q0 -188 27 -242q23 -45 76 -55q23 -6 98 -6v-74q-219 0 -323.5 98.5t-104.5 278.5z" />
<glyph unicode="u" horiz-adv-x="700" d="M49 309v819h217v-833q0 -137 47 -137q57 0 127 149v821h211v-1130h-211v166q-109 -166 -225 -166q-166 0 -166 311z" />
<glyph unicode="v" horiz-adv-x="731" d="M49 1128h205l176 -981l180 981h72l-205 -1130h-223z" />
<glyph unicode="w" horiz-adv-x="905" d="M49 1128h203l74 -794l86 794h213l73 -792l84 792h74l-123 -1130h-198l-84 819l-89 -819h-200z" />
<glyph unicode="x" horiz-adv-x="602" d="M49 1128h207l51 -190l49 190h74l-86 -333l209 -797h-205l-108 403l-105 -403h-74l142 545z" />
<glyph unicode="y" horiz-adv-x="759" d="M49 442v686h225v-686q0 -240 27 -299q33 -71 130 -71h3q23 0 47 4v1052h230v-1163q0 -182 -103.5 -278.5t-326.5 -96.5v74h30q115 0 146 60q24 47 24 226v15v37q-27 -4 -53 -4q-195 0 -291 129q-88 115 -88 315z" />
<glyph unicode="z" horiz-adv-x="690" d="M49 -2l309 1057h-256v73h519l-312 -1056h332v-74h-592z" />
<glyph unicode="&#xa1;" horiz-adv-x="370" d="M14 -127l88 1079h99l86 -1087q2 -53 -41 -93t-96 -40t-95.5 40t-40.5 91v10zM23 1161q0 51 36.5 89t87.5 38t89 -38t38 -89t-37.5 -89t-89.5 -38q-51 0 -87.5 38t-36.5 89z" />
<glyph unicode="&#xa2;" horiz-adv-x="620" d="M49 850q0 154 78 272q84 127 227 162v270h72v-260h145v-73h-145v-744h145v-74q-143 0 -145 3v-408h-72v416q-143 35 -227 161q-78 119 -78 275zM279 850q0 -141 6 -186q14 -121 69 -162v694q-55 -41 -69 -162q-6 -45 -6 -184z" />
<glyph unicode="&#xa3;" horiz-adv-x="727" d="M49 737v74h98q-66 178 -65 285q0 201 130 329.5t333 128.5h69v-71q-143 0 -227 -119q-76 -104 -76 -254q0 -74 70 -299h176v-74h-156q53 -190 54 -303q0 -229 -201 -362h424v-74h-582v74q41 2 98.5 49t57.5 198q0 213 -80 418h-123z" />
<glyph unicode="&#xa4;" horiz-adv-x="915" d="M49 680l41 70h90v53h-131l41 71h94q14 233 92 418q109 258 297 258q100 0 179 -73q46 -45 114 -158h-164q-45 158 -129 158q-98 0 -135 -189q-27 -139 -26 -414h426l-41 -71h-385v-53h352l-41 -70h-311q0 -281 26 -420q37 -188 135 -188q82 0 119 123l56 -123 q-78 -74 -170 -74q-195 0 -304 258q-76 184 -90 424h-135z" />
<glyph unicode="&#xa5;" horiz-adv-x="825" d="M49 1554h209l225 -888l217 888h76l-166 -680h140v-71h-160l-12 -53h172v-70h-189l-39 -154v-528h-207v504l-45 178h-194v70h176l-12 53h-164v71h145z" />
<glyph unicode="&#xa8;" horiz-adv-x="634" d="M49 1278q0 49 35 85t84 36t84 -36t35 -85t-35 -84t-84 -35t-84 35t-35 84zM346 1278q0 49 35 85t84 36t85 -36t36 -85t-36 -84t-85 -35t-84 35t-35 84z" />
<glyph unicode="&#xaa;" horiz-adv-x="602" d="M49 1051q0 147 80 243q86 104 229 105q-6 57 -45 74q-23 10 -88 10v71h33q135 0 215 -75.5t80 -210.5v-566h-203q-139 0 -223 107q-78 100 -78 242zM225 1044q0 -272 123 -272h17v557h-17q-123 0 -123 -285z" />
<glyph unicode="&#xab;" horiz-adv-x="595" d="M49 776l189 297h84l-93 -297l93 -297h-84zM274 776l189 297h84l-92 -297l92 -297h-84z" />
<glyph unicode="&#xad;" horiz-adv-x="540" d="M49 545v198h443v-198h-443z" />
<glyph unicode="&#xb4;" horiz-adv-x="608" d="M49 1157l313 402q43 55 93 55q43 0 73.5 -30t30.5 -75q0 -51 -55 -94l-334 -258h-121z" />
<glyph unicode="&#xb7;" horiz-adv-x="278" d="M12 735q0 51 37 88t90 37t90 -37t37 -88t-36.5 -89t-90.5 -38q-51 0 -89 38t-38 89z" />
<glyph unicode="&#xb8;" horiz-adv-x="507" d="M49 -432q0 74 84 74q82 0 82 -74q0 -25 -12 -37h18q45 0 80 27.5t35 70.5q0 100 -164 101h-70l238 336l59 -41l-100 -144q74 -14 117 -68t43 -128q0 -100 -71 -164t-169 -64q-59 0 -108 25q-61 33 -62 86z" />
<glyph unicode="&#xba;" horiz-adv-x="698" d="M49 1128q0 160 70 281q84 145 233 145q145 0 230 -147q68 -121 67 -279q0 -158 -69 -278q-83 -148 -230 -148t-231 146q-70 121 -70 280zM238 1128q0 -197 20 -268q25 -88 92 -88q82 0 105 148q6 44 6 208q0 162 -6 209q-23 145 -105 146q-68 0 -92 -88q-20 -72 -20 -267 z" />
<glyph unicode="&#xbb;" horiz-adv-x="595" d="M61 776l189 297h84l-93 -297l93 -297h-84zM286 776l189 297h84l-92 -297l92 -297h-84z" />
<glyph unicode="&#xbf;" horiz-adv-x="673" d="M29 78q0 84 104 211q96 115 195 231q104 139 104 250v162h76v-215q0 -135 -130 -366.5t-130 -334.5q0 -88 66.5 -147t156.5 -64v-2l123 2v-73h-131q-168 0 -293 86q-141 98 -141 260zM352 1161q0 51 37 89t88 38t89 -38t38 -89t-38 -89t-89 -38t-88 38t-37 89z" />
<glyph unicode="&#xc0;" horiz-adv-x="950" d="M49 1055v73h150q4 4 6 13q127 414 293 413q176 0 293 -413q110 -393 110 -942q0 -100 -6 -199h-205q0 31 2 100v99q0 477 -57 856h-277q-57 -375 -57 -828q0 -113 4 -227h-207q-2 68 -2 199q0 481 86 856h-133zM78 1976q0 43 31 74t74 31q49 0 92 -55l313 -402h-121 l-334 258q-55 43 -55 94zM371 1128h254q-63 354 -127 355q-63 0 -127 -355z" />
<glyph unicode="&#xc1;" horiz-adv-x="950" d="M49 1055v73h150q4 4 6 13q127 414 293 413q176 0 293 -413q110 -393 110 -942q0 -100 -6 -199h-205q0 31 2 100v99q0 477 -57 856h-277q-57 -375 -57 -828q0 -113 4 -227h-207q-2 68 -2 199q0 481 86 856h-133zM371 1128h254q-63 354 -127 355q-63 0 -127 -355zM420 1603 l313 402q43 55 93 55q43 0 73.5 -30t30.5 -75q0 -51 -55 -94l-334 -258h-121z" />
<glyph unicode="&#xc2;" horiz-adv-x="950" d="M49 1055v73h150q4 4 6 13q127 414 293 413q176 0 293 -413q110 -393 110 -942q0 -100 -6 -199h-205q0 31 2 100v99q0 477 -57 856h-277q-57 -375 -57 -828q0 -113 4 -227h-207q-2 68 -2 199q0 481 86 856h-133zM242 1581l254 412h98l252 -412h-213l-151 250l-154 -250 h-86zM371 1128h254q-63 354 -127 355q-63 0 -127 -355z" />
<glyph unicode="&#xc3;" horiz-adv-x="950" d="M49 1055v73h150q4 4 6 13q127 414 293 413q176 0 293 -413q110 -393 110 -942q0 -100 -6 -199h-205q0 31 2 100v99q0 477 -57 856h-277q-57 -375 -57 -828q0 -113 4 -227h-207q-2 68 -2 199q0 481 86 856h-133zM160 1629q2 82 61.5 140t141.5 58q31 0 53 -6l381 -100 q8 33 8 49q0 20 -4 31h65q2 -10 2 -33q0 -82 -60 -140.5t-142 -58.5q-35 0 -52 6l-378 103q-10 -27 -11 -49q0 -20 2 -29h-63q-4 20 -4 29zM371 1128h254q-63 354 -127 355q-63 0 -127 -355z" />
<glyph unicode="&#xc4;" horiz-adv-x="950" d="M49 1055v73h150q4 4 6 13q127 414 293 413q176 0 293 -413q110 -393 110 -942q0 -100 -6 -199h-205q0 31 2 100v99q0 477 -57 856h-277q-57 -375 -57 -828q0 -113 4 -227h-207q-2 68 -2 199q0 481 86 856h-133zM231 1716q0 49 35 85t84 36t84 -36t35 -85t-35 -84t-84 -35 t-84 35t-35 84zM371 1128h254q-63 354 -127 355q-63 0 -127 -355zM528 1716q0 49 35 85t84 36t85 -36t36 -85t-36 -84t-85 -35t-84 35t-35 84z" />
<glyph unicode="&#xc5;" horiz-adv-x="950" d="M49 1055v73h150q4 4 6 13q127 414 293 413q176 0 293 -413q110 -393 110 -942q0 -100 -6 -199h-205q0 31 2 100v99q0 477 -57 856h-277q-57 -375 -57 -828q0 -113 4 -227h-207q-2 68 -2 199q0 481 86 856h-133zM293 1800q0 82 59.5 142.5t141.5 60.5t141.5 -60.5 t59.5 -142.5t-59.5 -141.5t-141.5 -59.5t-141.5 59.5t-59.5 141.5zM363 1800q0 -53 39 -91t92 -38t90 38t37 91t-37 91t-90 38t-92 -38t-39 -91zM371 1128h254q-63 354 -127 355q-63 0 -127 -355z" />
<glyph unicode="&#xc6;" horiz-adv-x="1245" d="M49 1055v73h152q35 143 98 261q92 166 199 165q70 0 131 -67v67h567v-71h-369v-355h205v-73h-205v-983h369v-74h-567v1057h-271q-57 -375 -57 -828q0 -113 4 -229h-205q-4 133 -4 201q0 481 86 856h-133zM371 1128h256q-63 354 -129 355q-63 0 -127 -355z" />
<glyph unicode="&#xc7;" horiz-adv-x="735" d="M49 776q0 336 123 549q133 229 332 229h182v-71h-53q-229 0 -307 -195q-53 -133 -54 -512q0 -377 54 -510q78 -195 307 -194h53v-72h-182q-199 0 -332 229q-123 213 -123 547zM69 -391q0 74 84 74q82 0 82 -74q0 -25 -12 -37h18q45 0 80 27.5t35 70.5q0 100 -164 101h-70 l238 336l59 -41l-100 -144q74 -14 117 -68t43 -128q0 -100 -71 -164t-169 -64q-59 0 -108 25q-61 33 -62 86z" />
<glyph unicode="&#xc8;" horiz-adv-x="716" d="M-76 1960q0 43 31 74t74 31q49 0 92 -55l313 -402h-121l-334 258q-55 43 -55 94zM49 1055v73h51v426h568v-71h-369v-355h205v-73h-205v-983h369v-72h-568v1055h-51z" />
<glyph unicode="&#xc9;" horiz-adv-x="716" d="M49 1055v73h51v426h568v-71h-369v-355h205v-73h-205v-983h369v-72h-568v1055h-51zM295 1601l313 402q43 55 93 55q43 0 73.5 -30t30.5 -75q0 -51 -55 -94l-334 -258h-121z" />
<glyph unicode="&#xca;" horiz-adv-x="716" d="M49 1055v73h51v426h568v-71h-369v-355h205v-73h-205v-983h369v-72h-568v1055h-51zM76 1603l254 412h98l252 -412h-213l-151 250l-154 -250h-86z" />
<glyph unicode="&#xcb;" horiz-adv-x="716" d="M49 1055v73h51v426h568v-71h-369v-355h205v-73h-205v-983h369v-72h-568v1055h-51zM117 1720q0 49 35 85t84 36t84 -36t35 -85t-35 -84t-84 -35t-84 35t-35 84zM414 1720q0 49 35 85t84 36t85 -36t36 -85t-36 -84t-85 -35t-84 35t-35 84z" />
<glyph unicode="&#xcc;" horiz-adv-x="294" d="M-287 1960q0 43 31 74t74 31q49 0 92 -55l313 -402h-121l-334 258q-55 43 -55 94zM49 0v1554h197v-1554h-197z" />
<glyph unicode="&#xcd;" horiz-adv-x="294" d="M49 0v1554h197v-1554h-197zM94 1587l313 402q43 55 93 55q43 0 73.5 -30t30.5 -75q0 -51 -55 -94l-334 -258h-121z" />
<glyph unicode="&#xce;" horiz-adv-x="294" d="M-119 1593l254 412h98l252 -412h-213l-151 250l-154 -250h-86zM49 0v1554h197v-1554h-197z" />
<glyph unicode="&#xcf;" horiz-adv-x="294" d="M-117 1729q0 49 35 85t84 36t84 -36t35 -85t-35 -84t-84 -35t-84 35t-35 84zM49 0v1554h197v-1554h-197zM180 1729q0 49 35 85t84 36t85 -36t36 -85t-36 -84t-85 -35t-84 35t-35 84z" />
<glyph unicode="&#xd0;" horiz-adv-x="897" d="M49 1055v73h98v426h244q197 0 330 -229q127 -219 127 -549q0 -328 -127 -547q-133 -231 -330 -231h-244v1057h-98zM344 78q166 31 227 188q52 133 52 510q0 379 -52 512q-61 158 -227 189v-349h123v-73h-123v-977z" />
<glyph unicode="&#xd1;" horiz-adv-x="690" d="M-8 1643q2 82 61.5 140t141.5 58q31 0 53 -6l381 -100q8 33 8 49q0 20 -4 31h65q2 -10 2 -33q0 -82 -60 -140.5t-142 -58.5q-35 0 -52 6l-378 103q-10 -27 -11 -49q0 -20 2 -29h-63q-4 20 -4 29zM49 0v1554h199v-182l2 4q123 178 235 178q156 0 156 -309v-1245h-205v1260 q0 135 -41 139h2q-70 0 -149 -178v-1221h-199z" />
<glyph unicode="&#xd2;" horiz-adv-x="886" d="M26 1949q0 43 31 74t74 31q49 0 92 -55l313 -402h-121l-334 258q-55 43 -55 94zM49 776q0 334 107 549q115 229 286 229q174 0 287 -229q109 -221 109 -549q0 -326 -109 -547q-113 -229 -287 -229q-172 0 -286 229q-106 215 -107 547zM281 776q0 -389 26 -516 q39 -188 135 -188q98 0 138 188q26 127 26 516q0 391 -26 518q-39 188 -138 189q-96 0 -135 -189q-27 -127 -26 -518z" />
<glyph unicode="&#xd3;" horiz-adv-x="886" d="M49 776q0 334 107 549q115 229 286 229q174 0 287 -229q109 -221 109 -549q0 -326 -109 -547q-113 -229 -287 -229q-172 0 -286 229q-106 215 -107 547zM281 776q0 -389 26 -516q39 -188 135 -188q98 0 138 188q26 127 26 516q0 391 -26 518q-39 188 -138 189 q-96 0 -135 -189q-27 -127 -26 -518zM356 1595l313 402q43 55 93 55q43 0 73.5 -30t30.5 -75q0 -51 -55 -94l-334 -258h-121z" />
<glyph unicode="&#xd4;" horiz-adv-x="886" d="M49 776q0 334 107 549q115 229 286 229q174 0 287 -229q109 -221 109 -549q0 -326 -109 -547q-113 -229 -287 -229q-172 0 -286 229q-106 215 -107 547zM156 1589l254 412h98l252 -412h-213l-151 250l-154 -250h-86zM281 776q0 -389 26 -516q39 -188 135 -188 q98 0 138 188q26 127 26 516q0 391 -26 518q-39 188 -138 189q-96 0 -135 -189q-27 -127 -26 -518z" />
<glyph unicode="&#xd5;" horiz-adv-x="886" d="M49 776q0 334 107 549q115 229 286 229q174 0 287 -229q109 -221 109 -549q0 -326 -109 -547q-113 -229 -287 -229q-172 0 -286 229q-106 215 -107 547zM115 1639q2 82 61.5 140t141.5 58q31 0 53 -6l381 -100q8 33 8 49q0 20 -4 31h65q2 -10 2 -33q0 -82 -60 -140.5 t-142 -58.5q-35 0 -52 6l-378 103q-10 -27 -11 -49q0 -20 2 -29h-63q-4 20 -4 29zM281 776q0 -389 26 -516q39 -188 135 -188q98 0 138 188q26 127 26 516q0 391 -26 518q-39 188 -138 189q-96 0 -135 -189q-27 -127 -26 -518z" />
<glyph unicode="&#xd6;" horiz-adv-x="886" d="M49 776q0 334 107 549q115 229 286 229q174 0 287 -229q109 -221 109 -549q0 -326 -109 -547q-113 -229 -287 -229q-172 0 -286 229q-106 215 -107 547zM174 1720q0 49 35 85t84 36t84 -36t35 -85t-35 -84t-84 -35t-84 35t-35 84zM281 776q0 -389 26 -516 q39 -188 135 -188q98 0 138 188q26 127 26 516q0 391 -26 518q-39 188 -138 189q-96 0 -135 -189q-27 -127 -26 -518zM471 1720q0 49 35 85t84 36t85 -36t36 -85t-36 -84t-85 -35t-84 35t-35 84z" />
<glyph unicode="&#xd8;" horiz-adv-x="886" d="M49 -2l107 233q-106 219 -107 545q0 336 107 549q115 229 286 229q147 0 246 -153l70 153h80l-107 -231q107 -219 107 -547q0 -334 -107 -547q-115 -231 -289 -231q-143 0 -243 156l-70 -156h-80zM281 698q0 -106 2 -184l311 680q-33 289 -152 289q-115 0 -149 -277 q-12 -104 -12 -366v-142zM293 360q33 -289 149 -288q98 0 138 188q27 129 26 455v141q0 106 -2 184z" />
<glyph unicode="&#xd9;" horiz-adv-x="688" d="M-25 1949q0 43 31 74t74 31q49 0 92 -55l313 -402h-121l-334 258q-55 43 -55 94zM49 309v1245h203v-1259q0 -139 43 -139q57 0 145 178v1220h199v-1556h-199v184l-2 -4q-111 -178 -237 -178q-152 0 -152 309z" />
<glyph unicode="&#xda;" horiz-adv-x="688" d="M49 309v1245h203v-1259q0 -139 43 -139q57 0 145 178v1220h199v-1556h-199v184l-2 -4q-111 -178 -237 -178q-152 0 -152 309zM164 1601l313 402q43 55 93 55q43 0 73.5 -30t30.5 -75q0 -51 -55 -94l-334 -258h-121z" />
<glyph unicode="&#xdb;" horiz-adv-x="688" d="M45 1585l254 412h98l252 -412h-213l-151 250l-154 -250h-86zM49 309v1245h203v-1259q0 -139 43 -139q57 0 145 178v1220h199v-1556h-199v184l-2 -4q-111 -178 -237 -178q-152 0 -152 309z" />
<glyph unicode="&#xdc;" horiz-adv-x="688" d="M49 309v1245h203v-1259q0 -139 43 -139q57 0 145 178v1220h199v-1556h-199v184l-2 -4q-111 -178 -237 -178q-152 0 -152 309zM72 1727q0 49 35 85t84 36t84 -36t35 -85t-35 -84t-84 -35t-84 35t-35 84zM369 1727q0 49 35 85t84 36t85 -36t36 -85t-36 -84t-85 -35t-84 35 t-35 84z" />
<glyph unicode="&#xdd;" horiz-adv-x="825" d="M49 1554h209l225 -1009l217 1009h76l-254 -1148v-408h-207v381zM295 1593l313 402q43 55 93 55q43 0 73.5 -30t30.5 -75q0 -51 -55 -94l-334 -258h-121z" />
<glyph unicode="&#xde;" horiz-adv-x="862" d="M49 -2v1556h207v-233q242 0 399.5 -148.5t157.5 -388.5t-157.5 -389t-399.5 -149v-248h-207zM256 319q174 0 270 152q82 129 82 313q0 178 -86 312q-98 156 -266 155v-932z" />
<glyph unicode="&#xdf;" horiz-adv-x="980" d="M49 1055v73h45v52q0 375 367 374q109 0 182.5 -85t73.5 -195q0 -129 -109 -225q-55 -49 -55 -164q0 -51 53 -111q47 -47 94 -92q76 -74 150 -150q82 -94 82 -186q0 -166 -144 -262q-125 -86 -296 -86q-33 0 -52 2v72h52q88 0 155.5 62.5t67.5 150.5q0 66 -66 141 q-20 20 -119.5 111.5t-130.5 132.5q-43 61 -43 145q0 141 172 262q115 80 115 197q0 82 -50 145.5t-130 63.5t-109 -64q-33 -70 -32 -239v-1182h-228v1057h-45z" />
<glyph unicode="&#xe0;" horiz-adv-x="751" d="M49 461q0 182 103 315q111 143 288 144h27q-4 27 -18 75q-20 43 -76 54q-27 6 -101 6v73h29q186 0 293.5 -96t107.5 -280v-754h-262q-176 0 -288 145q-102 135 -103 318zM49 1509q0 43 31 74t74 31q49 0 92 -55l313 -402h-121l-334 258q-55 43 -55 94zM276 459 q0 -205 29 -287q35 -100 135 -100h33v776h-33q-100 0 -135 -100q-29 -82 -29 -289z" />
<glyph unicode="&#xe1;" horiz-adv-x="751" d="M49 461q0 182 103 315q111 143 288 144h27q-4 27 -18 75q-20 43 -76 54q-27 6 -101 6v73h29q186 0 293.5 -96t107.5 -280v-754h-262q-176 0 -288 145q-102 135 -103 318zM254 1157l313 402q43 55 93 55q43 0 73.5 -30t30.5 -75q0 -51 -55 -94l-334 -258h-121zM276 459 q0 -205 29 -287q35 -100 135 -100h33v776h-33q-100 0 -135 -100q-29 -82 -29 -289z" />
<glyph unicode="&#xe2;" horiz-adv-x="751" d="M49 461q0 182 103 315q111 143 288 144h27q-4 27 -18 75q-20 43 -76 54q-27 6 -101 6v73h29q186 0 293.5 -96t107.5 -280v-754h-262q-176 0 -288 145q-102 135 -103 318zM88 1161l254 412h98l252 -412h-213l-151 250l-154 -250h-86zM276 459q0 -205 29 -287 q35 -100 135 -100h33v776h-33q-100 0 -135 -100q-29 -82 -29 -289z" />
<glyph unicode="&#xe3;" horiz-adv-x="751" d="M35 1217q2 82 61.5 140t141.5 58q31 0 53 -6l381 -100q8 33 8 49q0 20 -4 31h65q2 -10 2 -33q0 -82 -60 -140.5t-142 -58.5q-35 0 -52 6l-378 103q-10 -27 -11 -49q0 -20 2 -29h-63q-4 20 -4 29zM49 461q0 182 103 315q111 143 288 144h27q-4 27 -18 75q-20 43 -76 54 q-27 6 -101 6v73h29q186 0 293.5 -96t107.5 -280v-754h-262q-176 0 -288 145q-102 135 -103 318zM276 459q0 -205 29 -287q35 -100 135 -100h33v776h-33q-100 0 -135 -100q-29 -82 -29 -289z" />
<glyph unicode="&#xe4;" horiz-adv-x="751" d="M49 461q0 182 103 315q111 143 288 144h27q-4 27 -18 75q-20 43 -76 54q-27 6 -101 6v73h29q186 0 293.5 -96t107.5 -280v-754h-262q-176 0 -288 145q-102 135 -103 318zM131 1278q0 49 35 85t84 36t84 -36t35 -85t-35 -84t-84 -35t-84 35t-35 84zM276 459 q0 -205 29 -287q35 -100 135 -100h33v776h-33q-100 0 -135 -100q-29 -82 -29 -289zM428 1278q0 49 35 85t84 36t85 -36t36 -85t-36 -84t-85 -35t-84 35t-35 84z" />
<glyph unicode="&#xe5;" horiz-adv-x="751" d="M49 461q0 182 103 315q111 143 288 144h27q-4 27 -18 75q-20 43 -76 54q-27 6 -101 6v73h29q186 0 293.5 -96t107.5 -280v-754h-262q-176 0 -288 145q-102 135 -103 318zM235 1368q0 82 59.5 142.5t141.5 60.5t141.5 -60.5t59.5 -142.5t-59.5 -141.5t-141.5 -59.5 t-141.5 59.5t-59.5 141.5zM276 459q0 -205 29 -287q35 -100 135 -100h33v776h-33q-100 0 -135 -100q-29 -82 -29 -289zM305 1368q0 -53 39 -91t92 -38t90 38t37 91t-37 91t-90 38t-92 -38t-39 -91z" />
<glyph unicode="&#xe6;" horiz-adv-x="1224" d="M49 461q0 184 103 315q113 143 292 144h25q-14 92 -59 118q-31 16 -134 17v73h27q223 0 322 -122q104 123 245 122q127 0 217.5 -89t88.5 -216v-26h-459q-6 -104 -6 -234q0 -266 26 -362q35 -129 137 -129h234v-74h-238q-86 0 -165 51v-51h-261q-180 0 -292 145 q-102 133 -103 318zM279 459q0 -250 47 -326q37 -61 118 -61h31v776h-31q-102 0 -137 -100q-29 -82 -28 -289zM727 870h254v21q2 164 -107 164q-121 0 -147 -185z" />
<glyph unicode="&#xe7;" horiz-adv-x="618" d="M49 563q0 240 110.5 402.5t276.5 162.5h133v-73h-127q-98 0 -135 -127q-29 -98 -28 -365q0 -264 28 -362q37 -129 135 -129h127v-74h-133q-166 0 -278 166q-109 160 -109 399zM90 -360q0 66 76 65q74 0 74 -65q0 -23 -11 -35h17q39 0 70.5 24.5t31.5 65.5q0 90 -147 90 h-62l213 301l54 -37l-91 -129q66 -14 105 -62t39 -114q0 -90 -63.5 -147.5t-151.5 -57.5q-55 0 -99 23q-55 29 -55 78z" />
<glyph unicode="&#xe8;" horiz-adv-x="792" d="M49 563q0 242 109 400q115 166 278 165q127 0 212 -82.5t95 -248.5h-456q-8 -78 -8 -234q0 -268 28 -362q39 -129 148 -129q61 0 117.5 41t78.5 100l68 -25q-33 -84 -106.5 -137t-163.5 -53q-178 0 -291 166q-109 160 -109 399zM49 1509q0 43 31 74t74 31q49 0 92 -55 l313 -402h-121l-334 258q-55 43 -55 94zM295 870h252q0 59 -29 117q-33 68 -86 68q-106 0 -137 -185z" />
<glyph unicode="&#xe9;" horiz-adv-x="792" d="M49 563q0 242 109 400q115 166 278 165q127 0 212 -82.5t95 -248.5h-456q-8 -78 -8 -234q0 -268 28 -362q39 -129 148 -129q61 0 117.5 41t78.5 100l68 -25q-33 -84 -106.5 -137t-163.5 -53q-178 0 -291 166q-109 160 -109 399zM295 870h252q0 59 -29 117q-33 68 -86 68 q-106 0 -137 -185zM356 1157l313 402q43 55 93 55q43 0 73.5 -30t30.5 -75q0 -51 -55 -94l-334 -258h-121z" />
<glyph unicode="&#xea;" horiz-adv-x="792" d="M49 563q0 242 109 400q115 166 278 165q127 0 212 -82.5t95 -248.5h-456q-8 -78 -8 -234q0 -268 28 -362q39 -129 148 -129q61 0 117.5 41t78.5 100l68 -25q-33 -84 -106.5 -137t-163.5 -53q-178 0 -291 166q-109 160 -109 399zM129 1161l254 412h98l252 -412h-213 l-151 250l-154 -250h-86zM295 870h252q0 59 -29 117q-33 68 -86 68q-106 0 -137 -185z" />
<glyph unicode="&#xeb;" horiz-adv-x="792" d="M49 563q0 242 109 400q115 166 278 165q127 0 212 -82.5t95 -248.5h-456q-8 -78 -8 -234q0 -268 28 -362q39 -129 148 -129q61 0 117.5 41t78.5 100l68 -25q-33 -84 -106.5 -137t-163.5 -53q-178 0 -291 166q-109 160 -109 399zM151 1278q0 49 35 85t84 36t84 -36t35 -85 t-35 -84t-84 -35t-84 35t-35 84zM295 870h252q0 59 -29 117q-33 68 -86 68q-106 0 -137 -185zM448 1278q0 49 35 85t84 36t85 -36t36 -85t-36 -84t-85 -35t-84 35t-35 84z" />
<glyph unicode="&#xec;" horiz-adv-x="342" d="M-258 1509q0 43 31 74t74 31q49 0 92 -55l313 -402h-121l-334 258q-55 43 -55 94zM55 -2v1130h230v-1130h-230z" />
<glyph unicode="&#xed;" horiz-adv-x="342" d="M55 -2v1130h230v-1130h-230zM110 1157l313 402q43 55 93 55q43 0 73.5 -30t30.5 -75q0 -51 -55 -94l-334 -258h-121z" />
<glyph unicode="&#xee;" horiz-adv-x="342" d="M-76 1161l254 412h98l252 -412h-213l-151 250l-154 -250h-86zM55 -2v1130h230v-1130h-230z" />
<glyph unicode="&#xef;" horiz-adv-x="342" d="M-98 1288q0 49 35 85t84 36t84 -36t35 -85t-35 -84t-84 -35t-84 35t-35 84zM55 -2v1130h230v-1130h-230zM199 1288q0 49 35 85t84 36t85 -36t36 -85t-36 -84t-85 -35t-84 35t-35 84z" />
<glyph unicode="&#xf0;" horiz-adv-x="974" d="M49 563q0 207 92 369q111 197 301 196q84 0 164 -47v183l-121 -50l-26 66l143 61q-16 94 -59 121q-33 20 -135 21v71h41q223 0 323 -143l127 53l27 -65l-119 -51q31 -72 31 -168v-617q0 -227 -99 -387q-111 -176 -295 -176q-193 0 -303 195q-92 162 -92 368zM281 563 q0 -266 26 -362q37 -129 135 -129q164 -1 164 491q0 319 -2 422q-47 41 -69 51q-37 18 -93 19q-100 0 -135 -127q-27 -96 -26 -365z" />
<glyph unicode="&#xf1;" horiz-adv-x="708" d="M-6 1217q2 82 61.5 140t141.5 58q31 0 53 -6l381 -100q8 33 8 49q0 20 -4 31h65q2 -10 2 -33q0 -82 -60 -140.5t-142 -58.5q-35 0 -52 6l-378 103q-10 -27 -11 -49q0 -20 2 -29h-63q-4 20 -4 29zM49 -2v1130h230v-151q109 152 215 151q166 0 165 -311v-819h-215v852 q0 121 -41 121q-59 0 -124 -131v-842h-230z" />
<glyph unicode="&#xf2;" horiz-adv-x="888" d="M49 563q0 242 111.5 402.5t283.5 160.5q195 0 304 -194q92 -160 92 -369t-92 -370q-111 -195 -304 -195t-303 195q-92 162 -92 370zM49 1509q0 43 31 74t74 31q49 0 92 -55l313 -402h-121l-334 258q-55 43 -55 94zM281 563q0 -270 26 -362q39 -129 137 -129 q100 0 138 129q26 92 26 362q0 272 -26 365q-37 127 -138 127q-100 0 -137 -127q-27 -92 -26 -365z" />
<glyph unicode="&#xf3;" horiz-adv-x="888" d="M49 563q0 242 111.5 402.5t283.5 160.5q195 0 304 -194q92 -160 92 -369t-92 -370q-111 -195 -304 -195t-303 195q-92 162 -92 370zM281 563q0 -270 26 -362q39 -129 137 -129q100 0 138 129q26 92 26 362q0 272 -26 365q-37 127 -138 127q-100 0 -137 -127 q-27 -92 -26 -365zM356 1157l313 402q43 55 93 55q43 0 73.5 -30t30.5 -75q0 -51 -55 -94l-334 -258h-121z" />
<glyph unicode="&#xf4;" horiz-adv-x="888" d="M49 563q0 242 111.5 402.5t283.5 160.5q195 0 304 -194q92 -160 92 -369t-92 -370q-111 -195 -304 -195t-303 195q-92 162 -92 370zM149 1161l254 412h98l252 -412h-213l-151 250l-154 -250h-86zM281 563q0 -270 26 -362q39 -129 137 -129q100 0 138 129q26 92 26 362 q0 272 -26 365q-37 127 -138 127q-100 0 -137 -127q-27 -92 -26 -365z" />
<glyph unicode="&#xf5;" horiz-adv-x="888" d="M49 563q0 242 111.5 402.5t283.5 160.5q195 0 304 -194q92 -160 92 -369t-92 -370q-111 -195 -304 -195t-303 195q-92 162 -92 370zM96 1217q2 82 61.5 140t141.5 58q31 0 53 -6l381 -100q8 33 8 49q0 20 -4 31h65q2 -10 2 -33q0 -82 -60 -140.5t-142 -58.5q-35 0 -52 6 l-378 103q-10 -27 -11 -49q0 -20 2 -29h-63q-4 20 -4 29zM281 563q0 -270 26 -362q39 -129 137 -129q100 0 138 129q26 92 26 362q0 272 -26 365q-37 127 -138 127q-100 0 -137 -127q-27 -92 -26 -365z" />
<glyph unicode="&#xf6;" horiz-adv-x="888" d="M49 563q0 242 111.5 402.5t283.5 160.5q195 0 304 -194q92 -160 92 -369t-92 -370q-111 -195 -304 -195t-303 195q-92 162 -92 370zM176 1288q0 49 35 85t84 36t84 -36t35 -85t-35 -84t-84 -35t-84 35t-35 84zM281 563q0 -270 26 -362q39 -129 137 -129q100 0 138 129 q26 92 26 362q0 272 -26 365q-37 127 -138 127q-100 0 -137 -127q-27 -92 -26 -365zM473 1288q0 49 35 85t84 36t85 -36t36 -85t-36 -84t-85 -35t-84 35t-35 84z" />
<glyph unicode="&#xf8;" horiz-adv-x="884" d="M49 563q0 240 110.5 402.5t284.5 162.5q82 0 156 -43l23 62h77l-41 -107q176 -162 177 -477q0 -207 -91 -370q-110 -195 -303 -195q-84 0 -157 45l-25 -66h-76l39 109q-174 174 -174 477zM279 563q0 -199 12 -297l268 713q-35 76 -117 76q-100 0 -137 -127 q-27 -92 -26 -365zM326 147q37 -76 116 -75q100 0 138 129q26 92 26 362q0 201 -14 297z" />
<glyph unicode="&#xf9;" horiz-adv-x="700" d="M49 309v819h217v-833q0 -137 47 -137q57 0 127 149v821h211v-1130h-211v166q-109 -166 -225 -166q-166 0 -166 311zM49 1509q0 43 31 74t74 31q49 0 92 -55l313 -402h-121l-334 258q-55 43 -55 94z" />
<glyph unicode="&#xfa;" horiz-adv-x="700" d="M49 309v819h217v-833q0 -137 47 -137q57 0 127 149v821h211v-1130h-211v166q-109 -166 -225 -166q-166 0 -166 311zM233 1157l313 402q43 55 93 55q43 0 73.5 -30t30.5 -75q0 -51 -55 -94l-334 -258h-121z" />
<glyph unicode="&#xfb;" horiz-adv-x="700" d="M47 1161l254 412h98l252 -412h-213l-151 250l-154 -250h-86zM49 309v819h217v-833q0 -137 47 -137q57 0 127 149v821h211v-1130h-211v166q-109 -166 -225 -166q-166 0 -166 311z" />
<glyph unicode="&#xfc;" horiz-adv-x="700" d="M49 309v819h217v-833q0 -137 47 -137q57 0 127 149v821h211v-1130h-211v166q-109 -166 -225 -166q-166 0 -166 311zM80 1288q0 49 35 85t84 36t84 -36t35 -85t-35 -84t-84 -35t-84 35t-35 84zM377 1288q0 49 35 85t84 36t85 -36t36 -85t-36 -84t-85 -35t-84 35t-35 84z " />
<glyph unicode="&#xfd;" horiz-adv-x="759" d="M49 442v686h225v-686q0 -240 27 -299q33 -72 133 -71q23 0 47 4v1052h230v-1163q0 -182 -103.5 -278.5t-326.5 -96.5v74h30q115 0 146 60q25 49 24 241v37q-27 -4 -53 -4q-195 0 -291 129q-88 115 -88 315zM254 1157l313 402q43 55 93 55q43 0 73.5 -30t30.5 -75 q0 -51 -55 -94l-334 -258h-121z" />
<glyph unicode="&#xfe;" horiz-adv-x="815" d="M49 -410v1962h207v-444q61 25 125 25q164 0 274.5 -161t110.5 -401q0 -238 -109 -395q-113 -164 -280 -164q-66 0 -121 25v-447h-207zM256 1028l2 -913q53 -31 119 -31q96 0 133 127q27 94 27 360t-27 361q-37 129 -133 129q-61 0 -121 -33z" />
<glyph unicode="&#xff;" horiz-adv-x="759" d="M49 442v686h225v-686q0 -240 27 -299q33 -72 133 -71q23 0 47 4v1052h230v-1163q0 -182 -103.5 -278.5t-326.5 -96.5v74h30q115 0 146 60q25 49 24 241v37q-27 -4 -53 -4q-195 0 -291 129q-88 115 -88 315zM110 1280q0 49 35 85t84 36t84 -36t35 -85t-35 -84t-84 -35 t-84 35t-35 84zM407 1280q0 49 35 85t84 36t85 -36t36 -85t-36 -84t-85 -35t-84 35t-35 84z" />
<glyph unicode="&#x152;" horiz-adv-x="1220" d="M55 776q0 330 107 549q111 229 289 229q78 0 147 -49v49h567v-71h-368v-355h204v-73h-204v-983h368v-72h-567v49q-70 -49 -147 -49q-178 0 -289 229q-106 219 -107 547zM287 776q0 -387 26 -516q39 -188 138 -188q104 0 139 209q8 51 8 61v713h-51v73h51v84q0 10 -8 62 q-35 209 -139 209q-98 0 -138 -189q-27 -127 -26 -518z" />
<glyph unicode="&#x153;" horiz-adv-x="1376" d="M63 563q0 240 111 401.5t283 161.5q168 0 278 -153q111 156 273 155q139 0 221 -95t84 -236h-459q-4 -51 -4 -146v-153q0 -182 14 -258q35 -168 148 -168h231v-74h-235q-162 0 -273 156q-111 -156 -278 -156q-193 0 -303 195q-90 162 -91 370zM293 563q0 -262 29 -362 q37 -129 135 -129q100 0 137 129q27 94 27 305v115q0 213 -27 307q-35 127 -137 127q-98 0 -135 -127q-29 -100 -29 -365zM862 870h256q0 88 -12 123q-23 61 -94 62q-117 0 -150 -185z" />
<glyph unicode="&#x178;" horiz-adv-x="825" d="M49 1554h209l225 -1009l217 1009h76l-254 -1148v-408h-207v381zM180 1716q0 49 35 85t84 36t84 -36t35 -85t-35 -84t-84 -35t-84 35t-35 84zM477 1716q0 49 35 85t84 36t85 -36t36 -85t-36 -84t-85 -35t-84 35t-35 84z" />
<glyph unicode="&#x2c6;" horiz-adv-x="778" d="M88 1161l254 412h98l252 -412h-213l-151 250l-154 -250h-86z" />
<glyph unicode="&#x2dc;" horiz-adv-x="778" d="M35 1217q2 82 61.5 140t141.5 58q31 0 53 -6l381 -100q8 33 8 49q0 20 -4 31h65q2 -10 2 -33q0 -82 -60 -140.5t-142 -58.5q-35 0 -52 6l-378 103q-10 -27 -11 -49q0 -20 2 -29h-63q-4 20 -4 29z" />
<glyph unicode="&#x2000;" horiz-adv-x="1040" />
<glyph unicode="&#x2001;" horiz-adv-x="2081" />
<glyph unicode="&#x2002;" horiz-adv-x="1040" />
<glyph unicode="&#x2003;" horiz-adv-x="2081" />
<glyph unicode="&#x2004;" horiz-adv-x="693" />
<glyph unicode="&#x2005;" horiz-adv-x="520" />
<glyph unicode="&#x2006;" horiz-adv-x="346" />
<glyph unicode="&#x2007;" horiz-adv-x="346" />
<glyph unicode="&#x2008;" horiz-adv-x="260" />
<glyph unicode="&#x2009;" horiz-adv-x="416" />
<glyph unicode="&#x200a;" horiz-adv-x="115" />
<glyph unicode="&#x2010;" horiz-adv-x="540" d="M49 545v198h443v-198h-443z" />
<glyph unicode="&#x2011;" horiz-adv-x="540" d="M49 545v198h443v-198h-443z" />
<glyph unicode="&#x2012;" horiz-adv-x="540" d="M49 545v198h443v-198h-443z" />
<glyph unicode="&#x2013;" horiz-adv-x="681" d="M23 545v198h626v-198h-626z" />
<glyph unicode="&#x2014;" horiz-adv-x="1366" d="M23 545v198h1323v-198h-1323z" />
<glyph unicode="&#x2018;" horiz-adv-x="313" d="M20 1497q49 45 152 133l125 -248l-70 -55z" />
<glyph unicode="&#x2019;" horiz-adv-x="313" d="M18 1382l70 -55l207 170q-49 45 -152 133z" />
<glyph unicode="&#x201a;" horiz-adv-x="227" d="M18 -90v254q54 -4 193 -41l-119 -238z" />
<glyph unicode="&#x201c;" horiz-adv-x="432" d="M18 1477q76 86 152 133l125 -248l-62 -47zM203 1618q55 18 192 41v-254l-73 -25z" />
<glyph unicode="&#x201d;" horiz-adv-x="432" d="M18 1405l74 -25l119 238q-55 18 -193 41v-254zM119 1362l61 -47l215 162q-76 86 -151 133z" />
<glyph unicode="&#x201e;" horiz-adv-x="432" d="M18 -90v254q54 -4 193 -41l-119 -238zM119 -133l125 248q75 -47 151 -133l-215 -162z" />
<glyph unicode="&#x2022;" horiz-adv-x="497" d="M43 762q0 86 61.5 147.5t147.5 61.5t147.5 -61.5t61.5 -147.5t-61.5 -147.5t-147.5 -61.5t-147.5 61.5t-61.5 147.5z" />
<glyph unicode="&#x2026;" horiz-adv-x="964" d="M47 125q0 53 38 90t89 37t88 -38t37 -89t-37 -89t-88 -38t-89 38t-38 89zM354 125q0 53 38 90t89 37t88 -38t37 -89t-37 -89t-88 -38t-89 38t-38 89zM662 125q0 53 37.5 90t88.5 37t88 -38t37 -89t-36.5 -89t-88.5 -38q-51 0 -88.5 38t-37.5 89z" />
<glyph unicode="&#x202f;" horiz-adv-x="416" />
<glyph unicode="&#x2039;" horiz-adv-x="344" d="M37 776l188 297h84l-92 -297l92 -297h-84z" />
<glyph unicode="&#x203a;" horiz-adv-x="344" d="M35 479h84l188 297l-188 297h-84l92 -297z" />
<glyph unicode="&#x205f;" horiz-adv-x="520" />
<glyph unicode="&#x20ac;" horiz-adv-x="915" d="M49 680l41 70h90v53h-131l41 71h94q14 233 92 418q109 258 297 258q100 0 179 -73q46 -45 114 -158h-164q-45 158 -129 158q-98 0 -135 -189q-27 -139 -26 -414h426l-41 -71h-385v-53h352l-41 -70h-311q0 -281 26 -420q37 -188 135 -188q82 0 119 123l56 -123 q-78 -74 -170 -74q-195 0 -304 258q-76 184 -90 424h-135z" />
<glyph unicode="&#xe000;" horiz-adv-x="1126" d="M0 0v1126h1126v-1126h-1126z" />
</font>
</defs>
</svg>
